<?xml version="1.0" standalone="no"?>
<svg xmlns="http://www.w3.org/2000/svg" xmlns:xlink="http://www.w3.org/1999/xlink" fill="#000000" version="1.1" id="Layer_1" width="128" height="128" viewBox="0 0 256 190" enable-background="new 0 0 256 190" xml:space="preserve">
<path d="M48.12,27.903C48.12,13.564,59.592,2,74.023,2c14.339,0,25.903,11.564,25.903,25.903  C99.834,42.335,88.27,53.806,74.023,53.806C59.684,53.806,48.12,42.242,48.12,27.903z M191,139h-47V97c0-20.461-17.881-37-38-37H43  C20.912,60,1.99,79.14,2,98v77c-0.026,8.533,6.001,12.989,12,13c6.014,0.011,12-4.445,12-13v-75h8v88h78v-88h8l0.081,50.37  c-0.053,8.729,5.342,12.446,10.919,12.63h60C207.363,163,207.363,139,191,139z M195.023,113.901l-11.705-1.482V92.342  c22.374-6.816,9.927-31.93,7.483-38.598h-20.67c-2.445,6.668-14.891,31.782,7.483,38.598v20.077l-11.705,1.482  c-0.815,0.074-1.334,0.815-1.259,1.63c0.074,0.815,0.741,1.259,1.63,1.259h28.374c0.889,0,1.556-0.445,1.63-1.259  C196.357,114.716,195.764,113.975,195.023,113.901 M231.621,51.151V29h-11.483v22.151c-6.001,1.482-10.52,6.89-10.52,13.335v49.563  c0,1.556,1.259,2.741,2.741,2.741h26.967c1.482,0,2.741-1.259,2.741-2.741V64.487C242.067,58.041,237.622,52.633,231.621,51.151z   M238.659,98.714h-25.633V73.08h25.633V98.714z M254,121.873h-98.92v6H254V121.873z"/>
</svg>